<?xml version="1.0" encoding="UTF-8"?>
<svg width="512" height="512" viewBox="0 0 512 512" fill="none" xmlns="http://www.w3.org/2000/svg">
  <rect width="512" height="512" rx="100" fill="#FFFFFF"/>
  <path d="M256 120C176.5 120 112 184.5 112 264C112 343.5 176.5 408 256 408C335.5 408 400 343.5 400 264C400 184.5 335.5 120 256 120ZM256 368C198.1 368 152 321.9 152 264C152 206.1 198.1 160 256 160C313.9 160 360 206.1 360 264C360 321.9 313.9 368 256 368Z" fill="#00A3FF"/>
  <path d="M256 200C220.7 200 192 228.7 192 264C192 299.3 220.7 328 256 328C291.3 328 320 299.3 320 264C320 228.7 291.3 200 256 200Z" fill="#00A3FF"/>
</svg>